<svg xmlns="http://www.w3.org/2000/svg" width="34" height="33" fill="none" viewBox="0 0 34 33"><g clip-path="url(#a)"><path fill="#fff" d="M17 0C7.611 0 0 7.387 0 16.5c0 7.738 5.489 14.23 12.894 16.014V21.542H9.388V16.5h3.505v-2.173c0-5.616 2.62-8.219 8.3-8.219 1.077 0 2.935.206 3.696.41v4.57c-.401-.04-1.098-.06-1.964-.06-2.788 0-3.865 1.024-3.865 3.689V16.5h5.553l-.954 5.042H19.06V32.88C27.478 31.893 34 24.936 34 16.5 34 7.387 26.39 0 17 0"/></g><defs><clipPath id="a"><path fill="#fff" d="M0 0h34v33H0z"/></clipPath></defs></svg>