<svg xmlns="http://www.w3.org/2000/svg" width="1920" height="244" fill="none" viewBox="0 0 1920 244"><path fill="#141414" d="M1847.76 98.441c46.31 12.691 93.98 27.783 93.98 80.262 0 46.991-35.67 77.518-97.07 77.518-63.8 0-111.82-31.556-111.82-86.093h61.74c0 26.068 22.64 35.672 50.08 35.672 22.98 0 35.33-8.918 35.33-21.266 0-19.551-26.41-24.01-61.05-34.3-42.19-12.348-79.24-30.527-79.24-75.803 0-53.508 41.85-74.431 94.67-74.431 57.28 0 102.22 30.184 103.93 79.919h-61.74c-2.74-18.522-18.52-29.498-42.19-29.498-18.52 0-32.93 5.831-32.93 19.551 0 15.092 15.44 19.894 46.31 28.469"/><path fill="#141414" d="M1519.09 5.488h61.74v99.47l85.41-99.47h72.03l-93.3 108.045 96.73 137.2h-72.03l-64.15-92.953-24.69 28.126v64.827h-61.74zm-193.94 0h61.74v194.824h109.07v50.421h-170.81zm-94.76 194.138h-84.04l-15.78 51.107h-61.74l88.84-245.245h61.74l88.49 245.245h-61.74zm-69.98-46.991h56.26l-27.79-90.552h-.68zm-198.957 98.098V55.909h-71.344V5.49h204.081v50.42h-71v194.824zm-210.62-150.577h-54.88c0-55.566 29.498-91.924 93.639-91.924 51.107 0 85.407 26.754 85.407 72.03 0 62.426-69.972 92.61-100.499 122.794v.686h100.499v46.991H692.523c0-39.445 20.58-63.798 41.503-81.291 42.532-35.329 82.663-53.851 82.663-85.064 0-18.179-10.29-29.155-28.812-29.155-22.295 0-37.044 12.348-37.044 44.933m-202.689-.686H655.16v50.421H548.144v50.421h126.224v50.421H486.404V5.488H672.31V55.91H548.144zM242.887 250.733V5.488h61.74l85.75 145.775h.686V5.488h61.74v245.245h-61.74l-85.75-145.775h-.686v145.775zm-145.105 5.488c-77.861 0-121.422-54.194-121.422-128.282C-23.64 54.194 19.921 0 97.782 0c77.175 0 121.422 54.194 121.422 127.939 0 74.088-44.247 128.282-121.422 128.282m0-50.421c44.59 0 59.682-34.986 59.682-77.861 0-42.532-15.092-77.518-59.682-77.518-44.933 0-59.682 34.986-59.682 77.518 0 42.875 14.749 77.861 59.682 77.861"/></svg>